<svg xmlns="http://www.w3.org/2000/svg" width="1200" height="675" viewBox="0 0 1200 675" role="img" aria-labelledby="title desc"><title id="title">沖繩親子自駕的兩個主行程節奏</title><desc id="desc">深藍背景上有一輛親子租車、兩個行程地點與中間的休息符號</desc><defs><linearGradient id="sky" x1="0" y1="0" x2="1" y2="1"><stop stop-color="#28688d"/><stop offset="1" stop-color="#12344e"/></linearGradient></defs><rect width="1200" height="675" fill="url(#sky)"/><circle cx="1040" cy="115" r="52" fill="#f4c96c" opacity=".9"/><path d="M0 442C220 352 390 454 583 407S923 309 1200 405V675H0Z" fill="#5b9f8b"/><path d="M0 508C260 430 480 534 708 468S972 434 1200 500V675H0Z" fill="#27675c"/><path d="M95 543H1105" stroke="#fff2c7" stroke-width="12" stroke-dasharray="42 34" opacity=".9"/><g transform="translate(382 332)"><path d="M44 124h394c21 0 32-19 25-39l-24-69c-5-14-18-23-33-23H138c-15 0-29 9-34 23L20 85c-7 20 4 39 24 39Z" fill="#f7f0df"/><path d="M126 20h279l30 70H94Z" fill="#91c9d1"/><circle cx="124" cy="132" r="45" fill="#1d2629"/><circle cx="372" cy="132" r="45" fill="#1d2629"/><circle cx="124" cy="132" r="18" fill="#d9c5a0"/><circle cx="372" cy="132" r="18" fill="#d9c5a0"/><rect x="192" y="57" width="85" height="35" rx="10" fill="#e8b877"/></g><g font-family="Arial, sans-serif" font-weight="700" text-anchor="middle"><circle cx="245" cy="205" r="56" fill="#fffdf8"/><text x="245" y="217" font-size="26" fill="#694624">上午</text><circle cx="600" cy="185" r="56" fill="#e8b877"/><text x="600" y="197" font-size="26" fill="#694624">休息</text><circle cx="950" cy="205" r="56" fill="#fffdf8"/><text x="950" y="217" font-size="26" fill="#694624">下午</text></g><path d="M305 205H540M660 205H890" stroke="#fffdf8" stroke-width="6" stroke-dasharray="12 12"/><text x="600" y="620" font-family="Arial, sans-serif" text-anchor="middle" font-size="40" font-weight="700" fill="#fffdf8">一天先留兩個主行程</text></svg>
